<svg xmlns="http://www.w3.org/2000/svg" style="display: none;">
    <symbol id="arrow-down" viewBox="0 0 640 640">
        <path d="M297.4 470.6C309.9 483.1 330.2 483.1 342.7 470.6L534.7 278.6C547.2 266.1 547.2 245.8 534.7 233.3C522.2 220.8 501.9 220.8 489.4 233.3L320 402.7L150.6 233.4C138.1 220.9 117.8 220.9 105.3 233.4C92.8 245.9 92.8 266.2 105.3 278.7L297.3 470.7z"/>
    </symbol>
    <symbol id="article" viewBox="0 0 512 512">
        <path d="M224 24c0-13.3 10.7-24 24-24 145.8 0 264 118.2 264 264 0 13.3-10.7 24-24 24s-24-10.7-24-24c0-119.3-96.7-216-216-216-13.3 0-24-10.7-24-24zM80 96c26.5 0 48 21.5 48 48l0 224c0 26.5 21.5 48 48 48s48-21.5 48-48-21.5-48-48-48c-8.8 0-16-7.2-16-16l0-64c0-8.8 7.2-16 16-16 79.5 0 144 64.5 144 144S255.5 512 176 512 32 447.5 32 368l0-224c0-26.5 21.5-48 48-48zm168 0c92.8 0 168 75.2 168 168 0 13.3-10.7 24-24 24s-24-10.7-24-24c0-66.3-53.7-120-120-120-13.3 0-24-10.7-24-24s10.7-24 24-24z"/>
    </symbol>
    <symbol id="note" viewBox="0 0 512 512">
        <path d="M256 141.3l0 309.3 .5-.2C311.1 427.7 369.7 416 428.8 416l19.2 0 0-320-19.2 0c-42.2 0-84.1 8.4-123.1 24.6-16.8 7-33.4 13.9-49.7 20.7zM230.9 61.5L256 72 281.1 61.5C327.9 42 378.1 32 428.8 32L464 32c26.5 0 48 21.5 48 48l0 352c0 26.5-21.5 48-48 48l-35.2 0c-50.7 0-100.9 10-147.7 29.5l-12.8 5.3c-7.9 3.3-16.7 3.3-24.6 0l-12.8-5.3C184.1 490 133.9 480 83.2 480L48 480c-26.5 0-48-21.5-48-48L0 80C0 53.5 21.5 32 48 32l35.2 0c50.7 0 100.9 10 147.7 29.5z"/>
    </symbol>
    <symbol id="example" viewBox="0 0 512 512">
        <path d="M512 256c0 .9 0 1.8 0 2.7-.4 36.5-33.6 61.3-70.1 61.3L344 320c-26.5 0-48 21.5-48 48 0 3.4 .4 6.7 1 9.9 2.1 10.2 6.5 20 10.8 29.9 6.1 13.8 12.1 27.5 12.1 42 0 31.8-21.6 60.7-53.4 62-3.5 .1-7 .2-10.6 .2-141.4 0-256-114.6-256-256S114.6 0 256 0 512 114.6 512 256zM128 288a32 32 0 1 0 -64 0 32 32 0 1 0 64 0zm0-96a32 32 0 1 0 0-64 32 32 0 1 0 0 64zM288 96a32 32 0 1 0 -64 0 32 32 0 1 0 64 0zm96 96a32 32 0 1 0 0-64 32 32 0 1 0 0 64z"/>
    </symbol>
    <symbol id="misc" viewBox="0 0 512 512">
        <path d="M224.3-2.5c19.8-11.4 44.2-11.4 64 0L464.2 99c19.8 11.4 32 32.6 32 55.4l0 203c0 22.9-12.2 44-32 55.4L288.3 514.5c-19.8 11.4-44.2 11.4-64 0L48.5 413c-19.8-11.4-32-32.6-32-55.4l0-203c0-22.9 12.2-44 32-55.4L224.3-2.5zm207.8 360l0-166.1-143.8 83 0 166.1 143.8-83z"/>
    </symbol>
    <symbol id="dark-theme" viewBox="0 0 1024 1024">
        <path d="M520.58112 819.3024h-3.072a317.3376 317.3376 0 0 1-225.91488-96.95232c-112.5888-120.40192-116.03968-306.40128-8.00768-430.8992a311.78752 311.78752 0 0 1 123.11552-84.3264 30.78144 30.78144 0 0 1 32.62464 6.7584 30.78144 30.78144 0 0 1 7.39328 30.79168 258.53952 258.53952 0 0 0 59.6992 271.1552 260.68992 260.68992 0 0 0 271.77984 59.6992 30.78144 30.78144 0 0 1 39.08608 39.71072 312.70912 312.70912 0 0 1-72.01792 111.72864 316.416 316.416 0 0 1-224.68608 92.33408z" />
    </symbol>
    <symbol id="light-theme" viewBox="0 0 1024 1024">
        <path d="M506.95168 690.92352a178.97472 178.97472 0 1 0 10.1888-357.79584 178.97472 178.97472 0 0 0-10.1888 357.79584zM509.44 306.42176a21.79072 21.79072 0 0 0 21.78048-21.79072v-58.04032a21.79072 21.79072 0 0 0-43.5712 0v58.04032c0 12.032 9.75872 21.79072 21.79072 21.79072z m157.71648 65.20832a21.7088 21.7088 0 0 0 15.57504-5.9392l42.1888-39.86432a21.79072 21.79072 0 0 0-29.92128-31.67232l-42.1888 39.86432a21.79072 21.79072 0 0 0 14.336 37.61152z m130.89792 121.856l-58.03008-1.6384a21.79072 21.79072 0 1 0-1.2288 43.55072l58.01984 1.64864a21.79072 21.79072 0 0 0 1.2288-43.56096zM687.50336 658.97472a21.79072 21.79072 0 0 0-31.67232 29.93152l39.86432 42.1888c4.13696 4.37248 9.64608 6.656 15.21664 6.81984a21.79072 21.79072 0 0 0 16.45568-36.74112l-39.86432-42.1888z m-176.47616 58.65472a21.79072 21.79072 0 0 0-22.39488 21.15584l-1.6384 58.01984a21.79072 21.79072 0 1 0 43.55072 1.2288l1.6384-58.0096a21.79072 21.79072 0 0 0-21.15584-22.39488z m-175.90272-61.7984l-42.1888 39.86432a21.79072 21.79072 0 0 0 29.92128 31.67232l42.1888-39.86432a21.79072 21.79072 0 0 0-29.92128-31.67232z m-28.7232-144.81408a21.79072 21.79072 0 0 0-21.15584-22.39488l-58.01984-1.6384a21.79072 21.79072 0 1 0-1.2288 43.55072l58.0096 1.6384a21.79072 21.79072 0 0 0 22.39488-21.15584z m30.12608-145.9712c4.13696 4.37248 9.64608 6.656 15.22688 6.8096a21.79072 21.79072 0 0 0 16.45568-36.74112l-39.87456-42.1888a21.79072 21.79072 0 1 0-31.66208 29.93152l39.85408 42.1888z"/>
    </symbol>
</svg>