<?xml version="1.0" encoding="utf-8" ?><svg xmlns="http://www.w3.org/2000/svg" xmlns:xlink="http://www.w3.org/1999/xlink" width="256" height="256" viewBox="0 0 256 256"><path fill="#C52323" transform="scale(0.25 0.25)" d="M329.848 20.7942C336.431 26.9362 343.347 32.684 349.711 38.9663C365.72 55.0811 380.1 72.7372 392.64 91.6778C400.392 103.39 407.543 117.726 415.19 128.6C419.766 126.11 422.192 123.514 426.153 120.197C428.112 132.264 431.838 146.045 438.354 156.513C441.55 153.993 444.992 151.198 448.297 148.839C449.599 168.923 455.199 188.205 462.546 206.829C466.43 204.083 470.037 201.167 473.754 198.211C473.772 213.389 474.943 228.59 478.995 243.272C479.381 244.67 481.61 253.76 484.071 252.559C488.9 250.201 493.311 244.45 497.558 240.892C493.016 268.929 495.674 300.02 489.762 328.237C488.783 332.91 487.768 339.243 487.24 344.004C492.291 342.216 496.702 339.293 501.281 337.746C497.758 352.272 494.075 354.847 487.411 368.022C485.573 371.656 482.117 383.945 480.237 388.702C475.598 400.444 470.2 412.678 464.196 423.757C469.149 422.07 472.898 420.717 478.102 420.065C474.175 426.028 470.754 432.297 466.804 438.232C462.866 444.15 458.183 449.902 454.787 456.129C448.821 467.067 445.011 479.211 439.778 490.518C430.375 510.834 401.59 560.229 406.047 581.411C406.446 583.304 406.915 585.101 408.492 586.274C423.637 581.283 462.054 498.847 469.667 480.25L490.13 429.862C493.133 422.659 495.88 415.435 499.256 408.402C510.635 384.697 527.318 364.122 540.207 341.294C541.639 338.759 542.964 336.046 544.483 333.571C544.127 337.725 541.139 356.351 545.86 356.785C551.801 354.091 563.753 332.24 569.623 325.126C583.197 308.677 597.152 296.674 609.313 278.937C609.359 282.942 608.024 297.896 613.529 298.208C622.289 294.397 647.154 263.049 653.655 254.306C653.364 258.761 652.116 271.998 653.207 275.395C658.489 278.973 669.159 268.112 673.759 264.716C683.458 257.557 691.525 248.122 698.164 238.058L698.533 253.245C707.866 248.916 716.145 242.605 722.792 234.751C725.552 231.438 728.874 226.818 731.605 223.768C732.567 226.28 733.458 229.278 735.13 231.278C740.499 233.022 750.974 222.488 754.494 218.699C756.622 216.408 757.176 208.478 759.154 205.182C761.767 205.379 762.302 209.661 762.736 211.849C779.761 196.918 795.362 180.437 809.336 162.618C813.419 157.352 816.743 152.223 820.603 146.942C818.945 181.255 798.776 216.255 783.964 246.193C786.953 247.16 789.93 248.161 792.895 249.197C787.305 256.05 776.027 268.091 774.721 277.541C774.171 281.517 779.996 281.819 783.104 281.203C784.73 280.874 786.35 280.523 787.966 280.15C786.585 287.363 782.743 293.153 778.969 299.393C776.69 303.161 773.663 306.853 771.83 310.897C772.045 311.271 772.261 311.646 772.476 312.02C775.516 313.416 778.184 313.219 781.452 313.886C771.798 326.762 763.129 339.195 756.473 353.935C755.502 356.085 749.613 366.001 753.864 367.014C759.914 368.456 765.322 367.147 771.771 368.391C764.561 378.779 756.431 386.854 747.558 395.686C743.55 399.676 734.86 408.135 732.146 412.653L732.361 413.805C735.447 415.804 745.111 415.346 749.385 415.669C728.277 432.453 710.119 452.392 687.435 467.193C682.652 470.313 678.741 473.408 674.772 477.511C681.142 477.502 684.538 477.64 690.717 479.072C675.71 487.953 660.528 496.536 645.18 504.814C593.792 532.305 488.59 584.257 462.07 636.062C496.312 630.451 520.045 612.52 549.037 594.99C556.688 590.363 565.502 586.586 573.285 582.083C592.602 570.954 617.352 557.527 634.82 543.84C633.03 549.248 632.157 554.203 631.128 559.792C640.747 552.767 648.587 546.889 659.835 542.358C666.837 539.538 675.991 537.221 682.531 533.94C687.939 531.228 692.356 527.032 698.456 524.097C697.195 528.268 696.433 531.36 695.523 535.631C700.914 533.363 705.03 531.409 710.026 528.849C717.783 524.873 738.955 512.112 745.919 510.775C746.357 512.536 744.83 520.549 744.699 523.332C759.23 518.744 775.045 513.91 790.373 513.316C787.604 516.379 779.884 524.432 784.592 528.331C788.863 531.868 799.508 524.707 803.88 524.193C816.617 522.692 831.38 521.24 844.152 521.534C839.741 524.031 832.094 527.54 830.58 532.638C829.364 536.731 836.638 538.139 839.326 538.038C853.906 537.489 869.363 536.575 883.924 535.831C881.002 538.733 874.795 541.054 874.575 545.241C874.416 548.277 880.299 549.23 882.397 549.53C896.583 550.978 911.346 550.087 925.443 552.485C935.054 554.068 944.35 557.175 952.982 561.688C941.924 566.058 881.889 588.549 877.854 596.355C877.349 597.333 877.304 598.241 877.728 599.277C879.031 602.462 883.903 603.753 886.764 605.038C875.295 610.376 865.324 618.003 854.922 625.074C843.741 632.674 848.597 637.166 857.919 642.144C835.172 645.871 825.34 655.464 804.505 662.931C806.748 671.251 807.553 671.467 815.22 676.365C798.871 679.464 784.484 683.376 768.44 687.744C761.558 689.618 754.129 690.748 747.13 692.328C748.777 697.588 749.11 699.514 752.748 703.764C736.81 703.103 720.884 702.202 704.973 701.061C697.526 700.479 687.019 699.053 679.93 698.941C682.291 703.064 685.067 706.853 687.228 710.625L686.485 710.599C672.079 710.009 657.022 704.979 643.002 701.768C610.94 694.424 519.962 671.833 493.967 695.777C491.168 698.355 489.244 701.319 487.658 704.752C505.448 707.056 521.543 707.604 538.677 709.62C546.409 710.581 554.112 711.763 561.776 713.165C570.029 714.636 583.131 718.072 590.86 716.704C590.365 718.491 589.56 720.592 589.862 722.351C594.638 726.048 614.628 729.655 621.492 731.266C630.54 733.39 645.01 740.054 653.416 740.133C652.051 744.759 651.579 746.277 648.443 750.177C653.062 751.525 661.094 752.105 666.314 752.992C677.594 754.91 689.191 757.766 700.532 758.607C698.957 763.118 697.55 765.813 694.94 769.894C703.996 772.464 713.079 774.935 722.188 777.307C731.878 779.905 740.682 783.056 750.791 783.135C748.476 786.764 745.568 791.076 743.82 794.904C750.614 798.389 760.696 800.556 768.255 802.28C799.823 809.479 822.245 811.886 853.891 801.946C849.102 808.564 844.152 811.513 837.396 815.876C808.599 834.471 777.404 842.716 743.212 843.221C745.877 846.773 748.098 849.295 751.082 852.611C735.793 851.771 711.733 851.329 697.105 856.253C701.216 860.73 704.12 864.14 707.576 869.165C698.448 867.316 689.075 864.973 679.878 862.973C668.165 860.426 656.001 858.252 644.399 855.55C647.149 860.279 648.914 863.49 650.901 868.601C641.667 864.865 633.156 861.388 624.089 857.27C614.869 853.082 602.587 846.647 593.12 843.954C593.374 848.515 593.554 852.509 593.533 857.103C585.443 847.098 574.152 843.813 563.673 836.463C556.816 831.653 549.919 825.745 542.817 821.739C543.414 824.761 544.616 832.369 541.142 833.685C540.106 832.66 540.125 832.479 539.493 831.222C537.647 827.55 534.084 824.069 531.14 821.176C512.718 803.081 489.087 790.999 466.166 779.735C471.853 788.029 475.236 796.019 479.989 804.727C492.371 827.416 507.496 848.124 511.063 874.4C508.31 872.316 506.326 870.718 503.755 868.422C513.131 886.285 515.461 901.97 516.113 921.746C513.513 918.653 509.686 913.76 506.896 911.147C508.259 935.355 507.892 970.732 491.939 990.351C489.61 982.798 488.777 972.983 487.068 965.053C483.882 950.264 480.242 935.815 476.441 921.182C475.231 923.139 473.581 926.002 472.267 927.797C466.497 914.605 458.288 896.952 453.983 883.392C452.21 886.84 451.018 889.225 448.47 892.201C443.186 882.388 439.948 875.631 436.296 865.003C434.509 859.802 431.586 849.801 429.52 845.312C428.269 846.981 426.39 849.97 424.566 850.77C421.266 849.662 416.966 833.68 415.377 829.678C409.441 814.723 404.339 800.374 400.034 784.851C399.883 789.435 399.959 794.262 400.221 798.764C401.479 820.374 398.383 842.643 381.402 857.756C376.243 862.348 372.509 865.385 365.754 867.653C376.785 850.68 377.268 839.975 373.803 819.389C373.29 816.337 370.745 806.344 368.696 804.598C365.62 803.694 363.073 805.216 360.153 806.477C366.827 794.756 366.13 779.253 362.715 766.597C362.022 763.962 361.061 761.406 359.848 758.967C357.726 759.08 355.553 759.147 353.452 759.427C367.322 739.936 365.943 731.194 365.421 707.21C360.196 718.247 351.466 735.435 344.437 745.532C331.108 764.678 314.504 784.941 299.048 802.254C280.025 823.374 259.542 843.133 237.752 861.385C202.516 891.451 170.77 914.92 138.707 949.247C130.622 958.009 123.179 967.342 116.433 977.172C113.493 981.492 106.916 993.853 102.376 995.51C95.8105 997.276 86.9248 993.547 81.5302 990.436C71.7943 984.869 71.1974 979.681 77.8024 971.199C121.267 915.381 184.485 879.053 238.14 833.935C280.48 798.333 312.611 757.742 348.048 715.934C337.354 720.818 329.883 723.254 318.174 723.958C317.21 724.016 309.642 727.851 307.34 728.495C308.476 726.759 309.582 725.038 310.791 723.349C293.965 723.781 281.477 726.432 267.616 736.158L266.891 730.097C252.797 734.896 238.632 742.446 230.713 755.648C230.006 756.826 227.397 762.992 226.08 762.399C223.894 758.556 226.514 750.702 227.479 746.597C231.436 729.757 241.471 716.992 256.659 708.514C275.227 698.149 300.887 698.773 321.727 695.083C327.888 693.942 333.97 692.416 339.94 690.514C342.429 689.727 350.671 686.875 352.807 686.649C358.548 686.044 363.65 686.475 369.881 685.819C362.643 680.742 355.905 677.364 348.366 673.075C326.262 660.499 304.623 651.568 279.293 647.711L279.976 646.177C316.846 651.203 337.787 663.199 369.369 682.287C362.764 666.999 358.977 650.978 353.572 635.401C347.12 616.805 338.326 596.893 328.758 579.743C304.818 536.829 271.048 506.835 229.15 482.069C209.235 470.298 189.859 459.388 171.502 445.183C158.718 435.15 146.955 423.882 136.382 411.542C132.479 407.026 128.791 401.973 124.994 397.644C135.511 418.907 159.509 445.97 179.313 459.178C166.388 458.354 152.988 454.434 141.222 449.085C134.496 446.028 128.478 442.557 121.491 439.793C137.152 456.448 166.96 468.113 189.764 468.798C191.2 468.84 192.636 468.867 194.073 468.881C205.03 475.778 216.181 482.683 227.036 489.714C204.351 492.845 189.797 493.896 166.821 488.112C160.28 486.465 147.804 482.826 141.808 481.928C165.858 498.146 197.916 502.081 225.975 496.647C229.201 496.018 232.415 495.331 235.616 494.587C245.392 499.847 267.289 515.817 273.676 524.554C250.256 531.237 226.352 526.93 202.761 525.627C201.677 525.567 200.425 525.944 199.76 526.818C220.184 535.418 259.997 537.053 281.611 531.03C299.277 547.249 312.395 561.823 322.749 583.75C302.547 573.25 269.216 558.573 246.331 557.98C254.673 562.631 265.074 565.754 274.935 569.926C293.277 577.686 315.584 585.609 330.224 599.79C341.352 614.34 349.661 648.699 355.548 666.191C338.958 656.418 324.307 649.063 305.51 643.949C297.958 641.895 290.293 640.668 282.948 638.778C273.912 629.238 254.603 620.797 241.761 618.474L240.695 618.825C240.922 619.81 240.971 619.769 242.029 620.323C252.129 625.615 262.271 630.24 270.831 638.094C257.889 637.78 243.153 637.075 230.377 637.406C220.688 629.91 204.68 621.057 192.297 626.342C203.993 628.758 210.859 631.581 220.622 638.82C185.168 639.46 145.266 658.691 115.844 677.797C125.56 674.875 134.338 670.713 143.644 667.231C165.468 659.067 199.641 648.368 223.028 649.643C211.449 661.501 197.798 668.908 186.778 679.437C199.839 674.578 208.104 669.751 219.326 661.295C222.865 658.629 229.476 653.367 233.036 651.224C240.357 651.15 248.81 651.677 256.134 652.263C247.212 664.463 229.525 671.464 222.342 683.679C236.86 677.901 256.445 664.085 268.12 653.554C277.294 655.262 288.354 657.081 297.139 659.692C290.734 665.543 271.135 677.369 267.697 683.544L267.92 684.292C273.197 684.75 300.623 667.442 305.306 663.553C305.724 663.209 306.136 662.857 306.542 662.499C323.934 668.714 336.444 675.062 352.318 684.677C334.923 691.4 315.173 693.051 296.742 695.21C283.041 696.814 269.619 696.147 255.908 694.91C259.095 691.4 262.023 688.301 264.57 684.252C252.506 688.164 243.408 691.305 230.407 690.702C224.676 690.435 218.74 689.629 213.124 689.387C215.528 686.387 217.956 683.406 220.406 680.443C210.483 684.136 200.404 683.731 189.991 684.04C186.769 684.135 182.356 684.951 179.415 684.336C178.753 681.367 184.42 675.843 186.431 673.693C165.26 676.365 143.831 678.037 123.011 682.573C115.687 684.169 108.301 685.774 101.044 687.638C104.337 681.715 109.883 676.728 114.994 672.34C137.274 653.216 165.199 636.727 194.41 631.797C186.465 628.003 182.639 629.323 174.441 628.02C203.257 616.162 224.447 611.747 255.74 616.468C264.466 617.651 273.418 619.59 282.098 620.787C285.649 621.276 294.25 621.212 295.314 617.083C296.955 610.715 289.72 601.798 285.231 598.04C278.273 592.215 241.63 564.657 241.835 557.633C243.076 556.325 243.323 556.222 244.778 555.241C234.655 549.728 226.737 547.427 216.122 543.186C209.404 540.502 201.61 535.431 194.58 533.319C190.769 532.174 184.399 531.656 180.287 530.94C186.599 527.398 193.511 524.896 200.288 522.373C193.452 519.492 185.54 516.937 178.996 514.178C165.168 508.349 142.351 492.053 132.842 480.186C137.939 479.781 142.216 479.538 147.357 479.541C137.249 463.857 117.265 450.46 106.854 431.842C113.749 435.045 117.395 436.429 124.968 437.505C121.066 426.973 116.271 417.127 111.493 407.032C99.4713 381.636 85.3677 330.793 96.3631 304.18C107.483 341.6 130.962 371.364 164.028 391.867C164.105 388.908 163.977 386.166 164.836 383.358C166.661 383.378 203.445 410.507 206.072 413.884C206.127 406.886 206.208 404.963 208.282 398.425C212.603 402.706 216.235 407.337 220.701 411.369C223.535 413.927 229.449 416.876 231.83 419.45C235.741 423.677 238.065 428.483 242.196 432.951C244.651 429.625 246.372 426.498 248.414 422.93C252.792 426.216 256.886 433.695 260.395 435.989C299.689 461.682 321.504 504.842 335.698 548.227C340.937 564.243 343.231 569.231 354.555 581.333C356.412 562.769 354.597 550.542 352.177 532.19C347.321 495.362 336.659 458.412 320.644 424.784C316.842 416.946 312.899 409.178 308.818 401.482C307.216 398.531 302.17 392.879 303.331 390.004C305.864 389.359 311.566 390.805 314.312 391.384C308.052 374.605 301.293 358.173 296.339 340.942C295.439 337.812 294.363 334.627 293.385 331.511C295.528 327.938 304.462 335.455 306.614 337.058C305.394 330.655 304.772 308.783 304.418 301.532L303.591 281.982C303.388 277.839 302.82 272.52 303.094 268.501C308.526 271.257 312.162 274.091 316.539 278.394C316.741 269.417 317.177 260.463 317.359 251.48C317.629 238.108 316.483 224.785 315.437 211.454C319.573 215.563 325.029 220.817 329.64 224.437C333.461 210.292 328.127 189.116 330.608 182.063C334.207 182.65 338.58 190.735 343.257 187.831C352.221 173.482 349.544 151.563 346.764 135.78C350.558 138.062 353.079 139.577 357.233 141.139C360.948 109.703 353.435 80.6742 342.171 51.3778C338.967 43.0438 331.749 28.8236 329.848 20.7942Z"/><path fill="#FEFEFE" transform="scale(0.25 0.25)" d="M396.065 217.731C396.076 211.982 394.366 199.796 393.573 193.999C389.412 163.589 382.198 127.957 372.061 98.8105C369.109 90.5306 365.986 82.3129 362.693 74.1628C360.555 68.9578 357.789 62.9435 356.084 57.7477L355.884 57.1215C363.171 68.4439 368.299 79.605 373.87 91.7781C392.596 132.702 406.019 175.849 413.816 220.173C430.539 206.542 437.016 187.419 442.05 167.296C442.93 163.777 443.93 160.099 445.434 156.801L445.761 156.099C446.373 181.157 435.93 212.587 415.126 227.936C416.71 244.985 417.833 262.073 418.494 279.183C435.982 270.283 453.215 247.366 460.742 229.679C464.153 221.665 466.762 213.393 470.211 205.391C469.444 214.847 467.589 224.183 464.683 233.213C457.683 254.861 438.203 276.73 418.059 287.052C418.076 299.5 418.049 311.315 417.312 323.766C416.742 333.391 415.825 343.025 415.354 352.62C446.682 338.709 468.849 308.538 482.456 277.908C486.566 268.656 488.751 257.644 493.022 248.857C491.883 259.577 489.595 270.143 486.197 280.373C473.483 317.441 449.731 343.716 414.697 360.891C411.957 375.2 410.377 395.539 408.517 410.436C434.937 401.501 454.834 382.961 474.372 363.827C481.458 356.886 488.198 349.48 495.918 343.263C495.497 344.119 495.046 344.961 494.567 345.786C479.074 372.46 437.576 410.541 407.653 418.31C404.166 442.907 400.918 464.896 398.408 489.645C416.36 480.028 429.76 463.521 443.393 448.828C451.905 439.654 457.63 431.763 469.031 426.241C455.865 446.54 419.358 486.749 398.012 497.339C396.535 506.748 395.835 518.772 395.068 528.373C393.242 551.208 392.478 574.409 390.482 597.221C389.276 609.87 387.83 622.494 386.146 635.088C385.063 642.949 382.988 654.544 383.004 662.054C387.77 656.258 394.677 643.75 398.846 636.751C403.922 628.299 409.309 620.038 414.998 611.985C427.5 594.052 441.268 577.208 454.935 560.17C459.286 554.747 464.281 549.506 468.447 544.13C468.772 519.42 471.074 490.172 481.195 467.305C479.835 480.176 477.501 492.797 476.231 505.651C475.222 515.861 475.023 526.503 475.078 536.758C477.177 534.64 479.087 532.453 480.938 530.115C490.133 518.501 499.956 507.364 509.241 495.835C505.77 481.631 503.866 460.158 506.657 445.681C511.941 418.271 524.197 375.69 539.975 352.769C538.107 360.986 532.828 373.632 530.121 382.116C519.155 416.477 507.51 450.898 515.066 487.232C527.714 469.277 542.244 455.786 557.05 440.053C549.71 387.55 579.089 333.086 606.303 290.554C603.816 302.676 595.937 316.116 590.339 327.361C574.63 358.915 559.038 397.487 563.753 433.402C565.615 431.587 567.435 429.564 569.242 427.671C583.188 413.068 598.01 399.282 612.68 385.399C610.043 348.811 616.861 324.194 634.454 292.226C639.168 283.661 643.958 274.804 649.567 266.743C647.67 276.652 643.931 282.758 639.956 291.913C626.347 323.26 616.168 342.383 619.106 377.762C626.604 370.61 633.799 363.52 641.439 356.499C648.856 349.683 657.127 342.743 664.175 335.649C665.646 309.284 671.068 287.237 683.937 263.96C686.605 259.135 690.092 253.206 693.895 249.247C692.037 256.247 687.904 265.593 685.193 272.58C677.575 292.215 672.942 308.027 671.919 329.297C685.809 316.216 699.152 303.129 712.879 289.925C712.87 288.907 712.883 287.889 712.918 286.873C713.404 273.431 721.953 240.643 732.202 231.04C731.131 237.199 728.408 244.953 726.548 251.129C723.389 261.614 721.624 269.64 720.828 280.557C725.822 276.598 734.18 267.513 738.692 262.933C757.348 243.995 773.18 223.063 788.883 201.699C793.314 195.671 797.22 189.463 801.66 183.489C793.365 204.127 780.8 220.871 767.925 238.616C751.34 258.184 735.311 277.21 717.736 295.879C688.044 327.419 656.764 356.766 625.871 387.009C607.436 405.195 589.273 423.656 571.39 442.385C555.268 458.786 539.452 475.486 523.951 492.476C512.687 504.979 502.295 517.763 491.642 530.768C470.714 556.323 450.367 582.348 430.615 608.822C412.588 632.939 393.007 660.939 373.382 683.41C386.485 644.79 387.087 600.039 388.668 559.536C389.61 538.793 390.769 518.06 392.145 497.342C395.404 450.587 403.809 403.251 408.083 356.412C413.719 294.66 412.982 232.278 398.534 171.675C394.231 153.473 385.483 121.858 376.979 105.013C376.355 103.792 375.681 102.596 374.959 101.43C376.167 106.627 378.611 112.537 380.44 117.662C383.002 124.825 385.339 132.066 387.447 139.375C397.361 173.122 403.533 207.857 405.852 242.953C408.401 277.236 408.294 311.309 405.192 345.513C398.633 417.842 386.475 487.582 385.634 560.512C385.273 591.85 383.25 654.229 371.431 682.158C350.444 603.126 322.999 540.355 253.031 493.121C242.385 485.992 231.4 479.094 220.185 472.86C166.073 442.783 112.04 396.608 99.6739 332.1C123.602 394.179 159.113 428.078 216.194 458.957C210.925 436.225 205.269 423.561 190.098 405.175L190.886 405.732C210.319 419.524 220.352 440.926 224.194 463.909C240.619 472.221 262.999 487.142 277.125 498.843C274.102 482.693 270.48 469.843 262.923 454.9C259.346 447.827 254.49 440.005 251.343 432.947L250.99 432.146C268.93 447.632 281.955 483.137 286.166 506.376C289.87 510.558 295.568 515.158 299.594 519.307C304.931 524.807 310.562 530.719 315.355 536.704C334.441 560.535 348.06 586.741 358.917 615.164C362.776 625.267 367.359 639.044 371.686 648.513C376.365 623.409 377.026 595.576 377.615 570.018L379.078 518.544C373.754 511.094 367.416 503.806 362.052 496.428C351.475 481.877 339.112 459.166 334.433 441.925C348.471 467.402 358.503 487.527 379.809 508.595C380.838 489.737 382.377 470.911 384.424 452.136C374.167 445.04 364.109 437.805 355.312 428.871C332.047 405.244 311.507 367.583 300.583 336.606C308.032 346.332 315.611 359.765 321.858 370.372C333.675 390.435 346.778 411.144 364.011 427.013C370.817 433.28 377.878 438.358 385.325 443.753C385.547 440.061 386.127 436.1 386.629 432.411C389.29 412.849 391.384 393.337 393.415 373.708C385.746 371.123 378.344 367.804 371.313 363.798C339.806 345.913 318.75 311.213 309.28 276.953C318.08 290.538 325.544 304.974 334.172 317.918C348.525 339.888 369.43 356.784 393.922 366.209C395.288 359.853 396.164 348.606 396.728 342.068C398.129 326.999 399.055 311.89 399.503 296.763C363.828 282.641 334.407 260.474 322.291 222.461C325.614 226.835 328.842 232.574 332.511 237.252C352.207 262.371 368.672 277.431 399.17 287.967C399.044 267.593 398.84 247.109 396.852 226.83C376.258 218.687 356.586 195.427 354.277 173.069C353.987 170.261 354.031 167.254 354.067 164.426L355.32 168.187C362.982 190.982 373.811 206.67 396.065 217.731Z"/><path fill="#FEFEFE" transform="scale(0.25 0.25)" d="M762.206 249.943L762.747 251.175C741.474 281.165 717.338 308.908 693.11 336.503C714.662 336.378 730.121 335.636 750.294 325.999C759.297 321.699 765.549 316.921 775.533 315.416C755.463 337.905 713.375 348.168 684.497 342.273C677.363 348.872 670.327 356.72 663.494 363.74L632.345 395.477C664.326 406.287 699.302 403.86 729.484 388.737C741.761 382.711 749.044 376.64 762.586 371.003C740.227 394.516 706.453 408.571 674.208 409.213C659.166 409.513 638.597 406.88 624.668 401.431C610.376 416.634 591.576 434.594 578.431 449.937C592.347 450.646 604.592 452.094 618.834 452.299C648.342 452.726 670.889 445.122 697.981 434.909C710.314 430.26 727.188 421.694 739.019 418.38C724.375 429.902 713.508 433.238 697.25 440.559C664.697 455.218 639.782 461.79 603.828 458.751C595.446 458.043 581.245 456.539 573.027 456.266C564.235 464.949 555.782 473.969 547.686 483.304C542.877 488.783 537.17 495.686 532.12 500.726C566.307 505.674 607.209 503.674 640.282 493.362C650.706 490.112 669.024 482.79 678.586 481.274L679.563 481.114C679.759 481.086 679.955 481.057 680.151 481.029C673.566 485.02 664.362 488.989 657.172 491.918C613.609 509.666 573.173 512.44 527.15 507.176C520.686 514.377 514.364 521.704 508.188 529.154C502.744 535.769 496.918 543.334 491.003 549.43C502.045 547.707 514.184 547.786 525.418 547.625C536.271 547.468 548.903 547.05 559.615 547.926C540.39 557.885 508.691 550.973 487.764 558.491C478.742 561.731 467.661 579.803 461.055 587.631C438.712 614.107 419.99 645.955 397.199 671.826C432.809 657.768 475.086 648.109 513.076 643.317C522.428 628.96 540.918 600.685 558.756 596.866C559.874 596.631 560.997 596.42 562.124 596.234C542.135 609.445 534.379 621.196 522.59 641.804C537.729 639.169 557.201 637.075 572.859 635.24C584.311 611.722 607.837 571.545 628.697 555.551C623.899 566.987 611.154 581.92 603.783 592.904C593.902 607.63 588.976 617.897 581.58 633.898C594.461 630.937 616.384 627.379 630.06 625.256C632.185 618.945 638.145 606.042 641.48 600.401C649.152 587.427 681.615 538.574 691.505 531.333C687.073 544.854 667.21 571.592 658.416 585.185C650.637 597.448 643.999 610.398 638.586 623.874C651.973 621.465 670.109 617.305 683.056 613.648C696.158 582.406 715.475 555.873 742.883 535.744C754.573 527.158 762.058 521.516 776.672 519.548C772.855 522.887 768.665 524.767 764.511 527.595C740.797 543.741 718.269 563.492 703.665 588.499C699.267 596.029 695.804 604.15 692.419 612.056C708.533 606.894 726.976 602.32 743.537 597.46C750.711 573.645 775.479 545.762 797.505 534.442C807.002 529.561 813.198 527.636 823.734 527.386C818.41 529.216 811.056 531.592 806.206 534.28C781.316 548.077 764.126 570.333 751.801 595.274L788.771 585.881C794.326 584.485 803.96 582.389 809.15 580.639C814.184 568.876 837.257 541.322 850.727 541.366L851.194 542.081C849.691 544.183 842.734 548.177 840.628 550.096C833.37 556.709 822.359 569.667 818.494 578.258C833.832 574.894 849.099 571.666 864.376 568.017C887.537 562.485 919.099 556.844 942.653 560.585C912.616 563.01 883.003 569.198 854.508 579.002C842.16 583.31 830.28 588.776 818.665 592.811C837.301 602.973 854.316 605.757 875.46 606.027C864.307 612.626 847.215 610.465 835.216 607.383C826.681 605.274 818.543 601.799 811.117 597.092C796.635 602.338 779.921 607.883 765.172 612.633C785.855 631.046 819.633 636.907 846.079 640.363C842.511 641.304 838.32 642.396 834.631 642.512C808.718 643.325 775.43 632.59 755.598 616.09C738.288 620.623 719.941 627.138 702.21 631.961C724.597 653.472 760.419 661.311 789.96 668.026C792.812 668.674 803.896 670.449 804.593 672.898C796.272 676.911 747.684 664.537 736.224 660.261C716.314 652.834 707.986 647.565 692.11 634.394C673.053 638.777 653.892 642.697 634.645 646.149C657.162 666.309 683.952 681.109 713.004 689.44C723.295 692.438 736.091 694.351 745.008 699.419C733.288 697.845 722.238 696.49 710.704 693.913C681.737 687.442 645.855 668.233 624.328 647.737C610.844 650.041 591.33 653.929 578.159 655.212C598.092 671.157 620.587 683.602 644.685 692.018C655.983 696.055 668.767 698.128 678.266 704.682C667.077 701.523 655.708 699.439 644.177 696.179C616.659 688.25 590.937 675.066 568.431 657.358C520.1 661.265 470.8 666.323 424.859 681.895C417.59 684.359 409.439 687.107 401.96 688.706C438.479 700.16 468.158 708.852 503.489 725.672C518.506 719.428 563.541 715.735 579.571 720.22C573.436 722.17 567.743 722.359 561.354 722.675C544.354 723.516 527.488 725.565 511.162 730.682C526.785 737.656 542.172 745.471 557.646 752.841C564.534 749.821 570.498 747.306 577.796 745.321C595.958 740.378 630.411 738.643 647.82 744.766C637.359 746.632 629.173 746.003 618.74 746.282C599.297 746.801 583.492 749.98 565.662 757.539C579.56 765.553 595.896 774.54 610.605 781.019C636.892 770.667 662.256 764.288 690.872 765.45C684.148 769.592 676.434 770.855 668.714 772.086C651.566 774.822 636.877 779.12 620.754 785.589C634.712 791.856 648.938 797.509 663.391 802.533C683.397 793.499 720.545 788.21 742.51 789.026C735.381 792.165 727.637 793.4 719.977 794.601C704.321 797.054 689.471 801.516 674.406 806.355C713.013 816.477 745.98 823.956 786.386 820.412C799.554 819.258 814.34 815.367 826.312 814.949C761.804 839.806 681.44 822.45 620.778 794.776C592.958 782.084 565.612 765.625 538.59 751.345C496.179 728.47 451.607 709.851 405.527 695.76C397.338 693.213 386.563 689.518 378.533 687.481C394.836 683.46 410.631 678.387 426.729 673.882C442.527 669.443 458.503 665.664 474.616 662.555C497.799 658.072 521.804 655.443 545.271 652.385C567.571 649.347 589.83 646.013 612.041 642.383C639.052 638.078 665.851 632.535 692.352 625.77C726.891 616.923 761.659 605.817 795.66 595.073C806.146 591.808 816.659 588.628 827.197 585.534C833.434 583.727 840.814 581.243 846.949 579.754C844.123 579.352 829.999 583.538 826.737 584.194C805.341 588.495 784.914 595.841 764.006 601.918L701.506 619.811C655.615 632.486 608.82 639.847 561.782 646.764C530.866 651.311 499.643 653.824 468.962 660.156C441.119 665.6 414.732 674.469 387.51 682.012C384.521 682.841 381.132 683.498 378.249 684.571L376.079 684.321C376.211 683.588 382.202 677.443 383.269 676.189C391.497 666.517 399.242 656.542 406.971 646.478L455.759 581.736C469.371 564.273 483.26 547.028 497.421 530.007C513.707 510.264 530.451 489.603 548.318 471.234C571.608 447.288 594.771 422.593 618.633 399.271L673.441 345.945C689.393 330.446 705.079 315.537 720.221 299.128C734.878 283.243 748.588 266.722 762.206 249.943Z"/><path fill="#FEFEFE" transform="scale(0.25 0.25)" d="M372.109 687.581C380.117 698.792 392.117 720.098 400.744 729.397C394.569 716.461 383.364 700.436 375.418 688.01C384.432 690.761 393.674 694.586 402.667 697.618C412.22 700.839 422.125 703.84 431.589 707.226C461.1 717.702 489.935 729.993 517.929 744.027C552.145 761.331 587.654 783.191 622.081 798.406C634.918 803.971 647.984 808.993 661.244 813.458C688.43 822.647 717.859 831.09 741.761 847.521C728.23 845.681 702.063 834.534 688.577 829.74C671.107 823.53 653.133 816.922 635.802 810.323C645.098 823.758 661.765 840.186 675.338 848.701C682.793 853.377 689.766 856.383 696.691 862.192C671.234 856.158 653.102 840.532 635.898 821.619C633.027 818.463 626.88 809.125 624.037 807.469C618.661 804.337 609.095 800.605 603.135 797.955C594.837 794.227 586.65 790.255 578.586 786.046C589.193 806.456 601.176 825.456 618.602 840.745C626.057 847.285 634.416 853.094 641.558 859.563C631.025 855.921 616.207 846.674 608.409 838.817C594.257 824.56 575.706 799.438 569.097 780.523C555.721 773.159 542.291 765.895 528.807 758.732C536.041 786.015 549.219 810.723 570.021 830.146C574.795 834.605 579.348 838.593 583.559 843.655C563.128 831.058 551.961 821.991 539.337 800.882C529.415 784.291 523.841 771.058 518.264 752.555C504.697 746.865 492.104 740.322 477.948 734.731C482.433 760.537 492.323 777.513 507.004 798.205C504.846 796.809 502.776 795.283 500.803 793.636C484.846 780.314 472.117 751.799 470.259 731.915C461.021 727.966 450.674 724.515 441.139 721.164C440.164 734.048 437.628 752.33 441.062 764.54C437.136 759.209 434.922 755.971 434.154 749.157C433.019 739.078 433.688 729.024 434.078 718.923C421.152 714.338 406.551 710.108 394.025 705.268C400.746 715.455 410.257 726.647 417.727 736.916C425.351 746.618 431.769 757.783 439.885 767.002C446.018 773.967 455.328 779.203 462.049 785.62C466.038 789.428 469.157 794.16 472.293 798.662C462.091 790.472 459.84 785.953 447.203 779.302C455.426 791.543 462.745 804.369 469.1 817.676C485.516 827.986 501.608 848.408 506.93 867.387C503.978 863.766 501.132 858.695 498.363 854.8C491.131 844.626 483.147 833.99 473.245 826.355C476.336 833.028 479.182 839.811 481.779 846.69C486.292 858.722 487.309 864.129 495.763 873.948C504.487 884.082 508.097 894.884 510.201 907.947C502.539 891.246 502.579 889.079 490.373 873.931C498.848 902.981 504.891 943.475 494.955 972.374C497.45 944.062 489.514 895.049 477.353 869.249C475.65 878.364 474.756 885.378 474.162 894.605C473.863 899.256 474.995 913.718 474.155 916.617L473.541 916.882C472.294 915.629 471.325 911.457 470.73 909.666C467.282 899.282 469.267 871.07 474.332 862.153C468.172 848.247 461.873 834.402 455.436 820.622C451.907 833.096 451.553 848.343 451.147 861.24C451.029 864.984 453.621 878.954 450.137 879.933L449.132 879.197C443.591 869.213 445.127 824.82 452.488 815.1C447.622 806.265 442.843 797.383 438.153 788.454C430.652 807.199 430.571 826.242 425.217 844.076C423.383 821.014 427.284 804.764 432.926 782.52C429.459 776.708 425.972 771.403 422.237 765.756C416.838 776.275 413.48 787.907 407.911 798.061C408.641 787.826 412.39 768.66 417.67 759.791C412.161 752.472 402.594 740.771 396.309 734.176C388.736 756.799 391.288 775.513 393.722 798.267L393.215 800.254L392.637 800.008C392.518 796.895 391.636 791.856 391.105 788.792C388.253 772.333 387.482 756.367 390.437 739.834C390.883 737.338 391.87 731.494 391.065 729.201L390.404 729.066C386.389 740.142 384.344 764.003 385.879 775.253C389.382 800.91 396.249 823.29 381.5 847.141C389.432 818.78 377.182 792.736 376.126 764.494C375.485 747.366 384.061 733.378 381.489 718.381C379.915 709.308 374.841 701.216 367.359 695.847C369.016 692.254 369.867 690.789 372.109 687.581Z"/><path fill="#FEFEFE" transform="scale(0.25 0.25)" d="M237.648 847.298L238.212 848.21C205.232 876.125 159.498 912.098 131.305 943.688C123.553 952.382 116.291 961.5 109.553 971C106.22 975.658 103.208 980.627 99.7437 985.182C98.7944 986.431 98.0029 987.197 96.3623 987.116C91.4664 986.876 85.9327 982.628 82.4049 979.659C85.9473 973.769 93.076 966.229 97.7907 961.01C128.767 926.721 166.213 901.443 202.974 874.26C214.712 865.506 226.272 856.517 237.648 847.298Z"/><path fill="#FEFEFE" transform="scale(0.25 0.25)" d="M366.611 686.775C367.189 686.693 366.819 686.692 367.683 687.066C367.874 693.328 354.402 698.003 349.699 699.799C309.097 715.297 275.881 702.947 240.486 734.132L240.043 734.384L239.638 734.069C241.212 731.329 244.979 727.341 247.236 725.093C254.577 717.775 263.371 712.078 273.051 708.369C293.855 700.473 318.852 700.974 340.306 694.09C346.901 691.974 360.251 686.738 366.611 686.775Z"/><path fill="#E9D2D6" transform="scale(0.25 0.25)" d="M248.751 837.718L249.233 838.663C246.333 841.192 241.092 846.073 238.212 848.21L237.648 847.298L248.751 837.718Z"/><path fill="#D78E91" transform="scale(0.25 0.25)" d="M248.751 837.718C251.81 834.813 254.907 832.301 258.152 829.627C256.67 832.197 251.529 836.645 249.233 838.663L248.751 837.718Z"/><path fill="#DB5C65" transform="scale(0.25 0.25)" d="M393.722 798.267C394.216 801.764 393.99 805.084 393.585 808.577C392.806 806.114 392.806 802.668 392.637 800.008L393.215 800.254L393.722 798.267Z"/><path fill="#E9D2D6" transform="scale(0.25 0.25)" d="M768.057 242.6C767.187 245.15 764.384 248.942 762.747 251.175L762.206 249.943C762.965 248.503 766.685 243.713 768.057 242.6Z"/><path fill="#C52323" transform="scale(0.25 0.25)" d="M262.166 645.707C266.067 645.078 275.978 645.709 279.976 646.177L279.293 647.711C273.786 646.898 267.759 646.39 262.166 645.707Z"/></svg>